<mxfile host="app.diagrams.net" modified="2024-05-10T09:00:39.670Z" agent="Mozilla/5.0 (Windows NT 10.0; Win64; x64) AppleWebKit/537.36 (KHTML, like Gecko) Chrome/124.0.0.0 Safari/537.36" etag="1LE24ZhsOywewXVrmbwq" version="24.3.1" type="github">
  <diagram name="Page-1" id="4GygrKbU-U5QG-yD9sKD">
    <mxGraphModel dx="1434" dy="738" grid="1" gridSize="10" guides="1" tooltips="1" connect="1" arrows="1" fold="1" page="1" pageScale="1" pageWidth="827" pageHeight="1169" math="0" shadow="0">
      <root>
        <mxCell id="0" />
        <mxCell id="1" parent="0" />
        <mxCell id="ZPUZCkTX9p46ty7WKc2R-2" value="&lt;b&gt;Read game result through CVS module&lt;/b&gt;" style="rounded=1;whiteSpace=wrap;html=1;arcSize=40;fontColor=#000000;fillColor=#ffffc0;strokeColor=#ff0000;" vertex="1" parent="1">
          <mxGeometry x="70" y="60" width="130" height="40" as="geometry" />
        </mxCell>
        <mxCell id="ZPUZCkTX9p46ty7WKc2R-3" value="" style="html=1;verticalAlign=bottom;endArrow=open;endSize=8;strokeColor=#ff0000;rounded=0;" edge="1" source="ZPUZCkTX9p46ty7WKc2R-2" parent="1">
          <mxGeometry relative="1" as="geometry">
            <mxPoint x="135" y="150" as="targetPoint" />
          </mxGeometry>
        </mxCell>
        <mxCell id="ZPUZCkTX9p46ty7WKc2R-6" value="Construct Points graph" style="swimlane;fontStyle=1;align=center;verticalAlign=middle;childLayout=stackLayout;horizontal=1;startSize=30;horizontalStack=0;resizeParent=0;resizeLast=1;container=0;fontColor=#000000;collapsible=0;rounded=1;arcSize=30;strokeColor=#ff0000;fillColor=#ffffc0;swimlaneFillColor=#ffffc0;dropTarget=0;" vertex="1" parent="1">
          <mxGeometry x="55" y="150" width="160" height="100" as="geometry" />
        </mxCell>
        <mxCell id="ZPUZCkTX9p46ty7WKc2R-7" value="&lt;div&gt;&lt;br&gt;&lt;/div&gt;" style="text;html=1;strokeColor=none;fillColor=none;align=center;verticalAlign=middle;spacingLeft=4;spacingRight=4;whiteSpace=wrap;overflow=hidden;rotatable=0;fontColor=#000000;" vertex="1" parent="ZPUZCkTX9p46ty7WKc2R-6">
          <mxGeometry y="30" width="160" height="70" as="geometry" />
        </mxCell>
        <mxCell id="ZPUZCkTX9p46ty7WKc2R-10" value="Alice defeated Bob&lt;div&gt;&amp;nbsp;Bob defeated Charlie&lt;/div&gt;&lt;div&gt;Alice defeated Charlie&lt;/div&gt;&lt;div&gt;Charlie defeated Dave&lt;/div&gt;" style="text;html=1;align=center;verticalAlign=middle;resizable=0;points=[];autosize=1;strokeColor=none;fillColor=none;" vertex="1" parent="1">
          <mxGeometry x="65" y="180" width="140" height="70" as="geometry" />
        </mxCell>
        <mxCell id="ZPUZCkTX9p46ty7WKc2R-12" value="Calculate the Primary wins" style="swimlane;fontStyle=1;align=center;verticalAlign=middle;childLayout=stackLayout;horizontal=1;startSize=30;horizontalStack=0;resizeParent=0;resizeLast=1;container=0;fontColor=#000000;collapsible=0;rounded=1;arcSize=30;strokeColor=#ff0000;fillColor=#ffffc0;swimlaneFillColor=#ffffc0;dropTarget=0;" vertex="1" parent="1">
          <mxGeometry x="260" y="170" width="180" height="60" as="geometry" />
        </mxCell>
        <mxCell id="ZPUZCkTX9p46ty7WKc2R-13" value="Alice:2 , Bob:1 , Charlie:1 , Dave:0" style="text;html=1;strokeColor=none;fillColor=none;align=center;verticalAlign=middle;spacingLeft=4;spacingRight=4;whiteSpace=wrap;overflow=hidden;rotatable=0;fontColor=#000000;" vertex="1" parent="ZPUZCkTX9p46ty7WKc2R-12">
          <mxGeometry y="30" width="180" height="30" as="geometry" />
        </mxCell>
        <mxCell id="ZPUZCkTX9p46ty7WKc2R-18" value="" style="html=1;verticalAlign=bottom;endArrow=open;endSize=8;strokeColor=#ff0000;rounded=0;exitX=1;exitY=0.25;exitDx=0;exitDy=0;" edge="1" source="ZPUZCkTX9p46ty7WKc2R-7" parent="1">
          <mxGeometry relative="1" as="geometry">
            <mxPoint x="260" y="198" as="targetPoint" />
          </mxGeometry>
        </mxCell>
        <mxCell id="ZPUZCkTX9p46ty7WKc2R-19" value="Calculate the secondery wins" style="swimlane;fontStyle=1;align=center;verticalAlign=middle;childLayout=stackLayout;horizontal=1;startSize=30;horizontalStack=0;resizeParent=0;resizeLast=1;container=0;fontColor=#000000;collapsible=0;rounded=1;arcSize=30;strokeColor=#ff0000;fillColor=#ffffc0;swimlaneFillColor=#ffffc0;dropTarget=0;" vertex="1" parent="1">
          <mxGeometry x="490" y="170" width="190" height="70" as="geometry" />
        </mxCell>
        <mxCell id="ZPUZCkTX9p46ty7WKc2R-20" value="Alice:+ 1, Bob:+1, Charlie:+0, Dave: +0" style="text;html=1;strokeColor=none;fillColor=none;align=center;verticalAlign=middle;spacingLeft=4;spacingRight=4;whiteSpace=wrap;overflow=hidden;rotatable=0;fontColor=#000000;" vertex="1" parent="ZPUZCkTX9p46ty7WKc2R-19">
          <mxGeometry y="30" width="190" height="40" as="geometry" />
        </mxCell>
        <mxCell id="ZPUZCkTX9p46ty7WKc2R-21" value="" style="html=1;verticalAlign=bottom;endArrow=open;endSize=8;strokeColor=#ff0000;rounded=0;exitX=1;exitY=0.5;exitDx=0;exitDy=0;" edge="1" source="ZPUZCkTX9p46ty7WKc2R-12" parent="1">
          <mxGeometry relative="1" as="geometry">
            <mxPoint x="490" y="200" as="targetPoint" />
            <mxPoint x="136" y="350" as="sourcePoint" />
          </mxGeometry>
        </mxCell>
        <mxCell id="ZPUZCkTX9p46ty7WKc2R-23" value="" style="html=1;verticalAlign=bottom;endArrow=open;endSize=8;strokeColor=#ff0000;rounded=0;exitX=0.537;exitY=-0.014;exitDx=0;exitDy=0;exitPerimeter=0;" edge="1" source="ZPUZCkTX9p46ty7WKc2R-19" parent="1">
          <mxGeometry relative="1" as="geometry">
            <mxPoint x="590.7741265099364" y="110" as="targetPoint" />
            <mxPoint x="590" y="160" as="sourcePoint" />
          </mxGeometry>
        </mxCell>
        <mxCell id="ZPUZCkTX9p46ty7WKc2R-24" value="Output the maximum points " style="swimlane;fontStyle=1;align=center;verticalAlign=middle;childLayout=stackLayout;horizontal=1;startSize=30;horizontalStack=0;resizeParent=0;resizeLast=1;container=0;fontColor=#000000;collapsible=0;rounded=1;arcSize=30;strokeColor=#ff0000;fillColor=#ffffc0;swimlaneFillColor=#ffffc0;dropTarget=0;" vertex="1" parent="1">
          <mxGeometry x="490" y="50" width="175" height="60" as="geometry" />
        </mxCell>
        <mxCell id="ZPUZCkTX9p46ty7WKc2R-25" value="Alice: 3, Bob: 2, Charlie: 1，Dave: 0" style="text;html=1;strokeColor=none;fillColor=none;align=center;verticalAlign=middle;spacingLeft=4;spacingRight=4;whiteSpace=wrap;overflow=hidden;rotatable=0;fontColor=#000000;" vertex="1" parent="ZPUZCkTX9p46ty7WKc2R-24">
          <mxGeometry y="30" width="175" height="30" as="geometry" />
        </mxCell>
        <mxCell id="ZPUZCkTX9p46ty7WKc2R-27" value="Subtitle" style="text;html=1;strokeColor=none;fillColor=none;align=center;verticalAlign=middle;spacingLeft=4;spacingRight=4;whiteSpace=wrap;overflow=hidden;rotatable=0;fontColor=#000000;" vertex="1" parent="ZPUZCkTX9p46ty7WKc2R-24">
          <mxGeometry y="60" width="175" as="geometry" />
        </mxCell>
      </root>
    </mxGraphModel>
  </diagram>
</mxfile>
